<svg xmlns="http://www.w3.org/2000/svg" height="34" viewBox="0 0 179 34" width="179"><g fill="none" fill-rule="evenodd"><g fill="#fff"><path d="m40.4417493 8.8319159c-.3000462.11354512-.5054736.32341024-.6170015.62924384-.111528.30548206-.1680116.79481586-.1680116 1.46729816v13.3132528c0 .6728339.0564836 1.1618161.1680116 1.4672982.1115279.3061851.3169553.5160503.6170015.6292438.298967.1135452.7796166.1831487 1.4412294.2095136v.5371423c-.8396978-.0520269-2.002467-.0787434-3.4865087-.0787434-1.5736239 0-2.7446677.0267165-3.5134913.0787434v-.5371423c.661253-.0263649 1.1422624-.0959684 1.4412294-.2095136.3000463-.1131935.5058334-.3230587.6170016-.6292438.1118877-.3054821.1680115-.7944643.1680115-1.4672982v-13.3132528c0-.6724823-.0561238-1.1618161-.1680115-1.46729816-.1111682-.3058336-.3169553-.51569872-.6170016-.62924384-.298967-.11319358-.7799764-.18314862-1.4412294-.20951359v-.53749375c.7594696.0523784 1.931233.07874336 3.5134913.07874336 1.4840417 0 2.6468109-.02636496 3.4865087-.07874336v.53749375c-.6616128.02636497-1.1422624.09632001-1.4412294.20951359"></path><path d="m49.6967692 12.8953076c.8607691-.5398944 1.8333018-.810399 2.9160826-.810399 1.3464671 0 2.3674938.3555946 3.0645956 1.0664123.3576435.3879214.6141314.8657633.7698427 1.4338973.1549536.5673908.2326199 1.3317149.2326199 2.2918576v7.5759865c0 .5265179.0731199.9378484.2189808 1.2332483.145861.2954.3765865.5034804.6917977.6231267.3155901.1200178.7459746.1798409 1.2922902.1798409v.5956304c-1.7700322-.0735713-2.9282061-.110357-3.4741428-.110357-.5364652 0-1.6146998.0367857-3.2339458.110357v-.5956304c.480394 0 .8543284-.0598231 1.1225611-.1798409.2686114-.1196463.4663762-.3277267.593673-.6231267.1265391-.2953999.1901875-.7067304.1901875-1.2332483v-8.1991131c0-.6833214-.0545557-1.2551711-.1621519-1.717407-.1087327-.4618643-.334533-.8352944-.6785376-1.1217766-.3432468-.2861106-.8444781-.4291659-1.503315-.4291659-.7906801 0-1.4946013.2259159-2.1110059.6781193-.6171623.4529466-1.0949043 1.0738438-1.4336048 1.8630633-.3390794.7899626-.5080508 1.6646436-.5080508 2.6247863v6.3014937c0 .5265179.0632696.9378484.1898087 1.2332483.1272968.2954.3273347.5034804.6004925.6231267.2731578.1200178.6501231.1798409 1.1293806.1798409v.5956304c-1.6188672-.0735713-2.7012692-.110357-3.2475848-.110357-.5459367 0-1.7041106.0367857-3.473764.110357v-.5956304c.5459368 0 .9763213-.0598231 1.2922902-.1798409.3148324-.1196463.545179-.3277267.6917977-.6231267.145861-.2953999.2182232-.7067304.2182232-1.2332483v-8.8776041c0-.8769105-.1617731-1.5141569-.4868347-1.9117392-.3246827-.3964676-.8963819-.5952587-1.7154764-.5952587v-.5956303c.602008.0553642 1.2002273.0828606 1.7931427.0828606 1.2240954 0 2.2269369-.1289356 3.0085243-.3875499v3.3382051c.4800152-1.2005499 1.1502179-2.0711437 2.0121235-2.6110382"></path><path d="m65.6963904 13.0196123c.8619056-.5258158 1.8283765-.7889077 2.9020647-.7889077 1.3460883 0 2.3678727.3521384 3.0645956 1.0564151.3674939.3841509.6281493.8569803.7838606 1.4192242.1549536.5626119.2329987 1.319139.2329987 2.2703173v7.50235c0 .5214002.072741.9283647.218602 1.2205255.1458609.2928967.3765864.4985867.6921765.617438.3152112.1184833.7463535.1784609 1.2922902.1784609v.589473c-1.8079181-.0732242-2.9653343-.1096523-3.4741428-.1096523-.5459367 0-1.6287176.0364281-3.2479636.1096523v-.589473c.4800151 0 .8558439-.0599776 1.1297594-.1784609.2731578-.1188513.4731957-.3245413.6001136-.617438.1272969-.2921608.1909453-.6991253.1909453-1.2205255v-8.119788c0-.6766796-.0564501-1.243339-.170108-1.7007141-.1125213-.4570072-.3405948-.8275436-.6845993-1.1105053-.3436257-.2833297-.8403107-.4253625-1.490055-.4253625-.7815874 0-1.4802045.2170967-2.096988.6512903-.6164047.4341936-1.0967987 1.0376491-1.4404244 1.8099985-.3436256.7734533-.5152491 1.6484638-.5152491 2.6272391v6.267842c0 .5214002.0632696.9283647.1909453 1.2205255.126918.2928967.3243038.4985867.5925365.617438.2682326.1184833.6425459.1784609 1.1229399.1784609v.589473c-1.6192461-.0732242-2.6971017-.1096523-3.2339458-.1096523-.5459367 0-1.7044895.0364281-3.473764.1096523v-.589473c.5455579 0 .9759424-.0599776 1.2919114-.1784609.3152112-.1188513.5459367-.3245413.6917977-.617438.1458609-.2921608.2193597-.6991253.2193597-1.2205255v-16.01990337c0-.86838717-.1629097-1.49723194-.4875924-1.8857984-.3250615-.38856645-.8967607-.58321764-1.7154764-.58321764v-.58984094c.6114795.05519409 1.20932.08242318 1.7927638.08242318 1.2434173 0 2.245501-.13209787 3.0085243-.39776547v10.50601284c.4803941-1.188145 1.1505968-2.0454933 2.0121236-2.5713091"></path><path d="m83.0231791 15.1065486c-.1807244-.7642759-.463387-1.3714989-.8497157-1.8209452-.3866742-.4494464-.8631922-.6745314-1.4298997-.6745314-.5411366 0-1.039079.1820221-1.4938272.5464283-.4557849.3644062-.8396947.9220525-1.1534571 1.6725773-.3130714.7508865-.5131467 1.6841572-.5984984 2.7987262h5.744479c.0345553-.9169864-.0383565-1.7576175-.2190809-2.5222552m1.8742815 10.0832308c-.4509472.5619888-1.0131625 1.0179489-1.6873371 1.3686039-.6741746.3510168-1.4278265.5265253-2.26061.5265253-1.2540132 0-2.3380141-.2992691-3.2523482-.8974452-.9143342-.5978143-1.612352-1.4384454-2.0930167-2.5222552-.4806647-1.0834479-.7211699-2.3311862-.7211699-3.7432149 0-1.6002026.2443062-2.9897952.7339554-4.167692.4896491-1.1778968 1.1828291-2.0840269 2.0802312-2.7180285.8970565-.6340016 1.9468476-.9513642 3.1493733-.9513642 1.5795243 0 2.7969088.5019179 3.6514623 1.5043062.8545534 1.0027503 1.2813118 2.5247884 1.2813118 4.5661143h-8.2428298c-.0604718.4762249-.0905349 1.0657161-.0905349 1.7666642 0 1.2140841.1914365 2.2750959.573273 3.1837591.3818364.9079395.8821977 1.6052689 1.5007382 2.0905407.6178494.4856336 1.2705997.7284504 1.9579053.7284504 1.7688877 0 3.0609117-.9216906 3.8767631-2.765072l.5283511.2156764c-.2066409.6477527-.5349166 1.2520807-.9855181 1.8144315"></path><path d="m92.3097409 13.9966004c.3871398-.5540005.8473384-1.0106515 1.3813121-1.3710676.5346898-.3600446 1.0987465-.5406242 1.6953931-.5406242.4809702 0 .9100114.0995789 1.2881979.2983651.3781866.1984146.6743611.468541.8885236.8100074.213088.3422096.3198111.7156304.3198111 1.1221204 0 .4986376-.1425362.9207332-.4268924 1.26703-.2847143.3462967-.6629008.5194451-1.1349178.5194451-.4003907 0-.7434804-.1319049-1.0278365-.3945999-.2850725-.2630667-.4268924-.6208819-.4268924-1.0734457 0-.6186524.311216-1.1310379.9343643-1.5371563-.1253459-.1850384-.3162299-.2775576-.5740843-.2775576-.72056 0-1.3705682.2864751-1.9493082.8590538-.57874.5725786-1.0324923 1.2785484-1.3612567 2.119024-.3298388.840104-.4942211 1.6252168-.4942211 2.354595v6.0107753c0 .8776319.2399479 1.4840228.7209181 1.8214021.480254.3370076 1.2058278.5056973 2.1760053.5056973v.595244c-2.2429758-.0739411-3.6447013-.1107258-4.2055348-.1107258-.4802539 0-1.5571545.0367847-3.2303435.1107258v-.595244c.5160671 0 .9232623-.0605648 1.2215856-.1802081.2983233-.1200149.5157089-.3277186.6539476-.6234828.1378805-.2953926.2069998-.7059698.2069998-1.2324746v-8.8777558c0-.8772603-.1532802-1.5144909-.4609149-1.9116918-.3065603-.3964578-.8469803-.595244-1.6216181-.595244v-.5956156c.5694286.0557345 1.1349178.0828586 1.6957513.0828586 1.1564056 0 2.104379-.1289324 2.8432036-.3879118v3.5458261c.2052092-.5907852.5006675-1.1629923.8878073-1.7173644"></path><path d="m102.499595 6.32579197c.242752.16106831.43585.37534669.580593.64355418.145391.26784798.218087.55834618.218087.87113508 0 .31242938-.072696.60544428-.218087.87760658-.144743.27288135-.337841.4868002-.580593.64355418-.241779.15603493-.503678.23441192-.785699.23441192-.28267 0-.546841-.07837699-.792839-.23441192-.245997-.15675398-.439744-.37067283-.580268-.64355418-.141822-.2721623-.211921-.5651772-.211921-.87760658 0-.3127889.070099-.6032871.211921-.87113508.140524-.26820749.334271-.48248587.580268-.64355418.245998-.16070878.510169-.24088341.792839-.24088341.282021 0 .54392.08017463.785699.24088341m.683795 19.40549563c.124946.2858243.322912.4871597.592276.6029276.270337.1161274.639333.1740113 1.107313.1740113v.5766821c-1.516227-.071546-2.516119-.1071392-3.000325-.1071392-.483232 0-1.483773.0355932-2.9996753.1071392v-.5766821c.4673302 0 .8363263-.0578839 1.1066638-.1740113.2703375-.1157679.4673305-.3171033.5929255-.6029276.124621-.2861839.187256-.6838213.187256-1.1932717v-8.59019c0-.8481254-.139225-1.464715-.417676-1.8490499-.277477-.3839753-.767525-.575963-1.4691693-.575963v-.5763225c.5156859.05321 1.0281264.0798151 1.5363483.0798151 1.048247 0 1.906966-.1247561 2.576806-.3749872v11.8866975c0 .5094504.062311.9070878.187257 1.1932717"></path><path d="m115.163701 13.6480585v.546948h-4.111095v10.5810098c0 .8272231.149243 1.4207046.447729 1.7811605.298485.360098.741482.540147 1.330081.540147.578407 0 1.071273-.2269405 1.478232-.6804635.407688-.453523.750583-1.2009231 1.031232-2.2418425l.543099.1335155c-.452825 2.5178221-1.655504 3.7763753-3.609494 3.7763753-.623908 0-1.139705-.0733798-1.546665-.2201395-.406596-.1471175-.769147-.3758477-1.085833-.6872645-.39786-.4001884-.678145-.8916541-.840856-1.474755-.162711-.5823851-.244249-1.3673701-.244249-2.3542389v-9.1535042h-2.672903v-.546948h2.672903v-4.17620571c1.040332-.02648832 1.872816-.15570836 2.496724-.38694423v4.56314994z"></path><path d="m134.488152 8.88512907c-.303577.15222344-.513528.40115766-.627725.74819919-.114551.34704153-.172358.86341414-.172358 1.54876884v15.9028115h-.620632l-11.369271-17.29516726v14.06809996c0 .6853547.061354 1.2020764.18548 1.5484197.122708.3470415.354647.5970232.694044.7481992.339043.1522234.865693.2412532 1.579598.2670893v.5334803c-.64333-.0516721-1.564703-.0778574-2.7627-.0778574-1.075289 0-1.912611.0261853-2.511609.0778574v-.5334803c.625242-.0258361 1.090184-.1148659 1.394471-.2670893.303933-.151176.513174-.4011577.62808-.7481992.114906-.3463433.171649-.863065.171649-1.5484197v-12.949118c0-.6678978-.055325-1.15354646-.16562-1.45729508-.10994-.30374862-.312444-.51183388-.60751-.62495406-.295421-.11277104-.768875-.18190004-1.42107-.20808526v-.53348034c.590132.05167218 1.427099.0778574 2.511609.0778574.810723 0 1.515761-.02618522 2.115114-.0778574l9.557735 14.49753764v-11.4003491c0-.6853547-.059226-1.20172731-.178742-1.54876884-.119162-.34704153-.350391-.59597575-.694044-.74819919-.343653-.15152518-.872432-.24055495-1.585981-.26674017v-.53348034c.642975.05167218 1.563638.0778574 2.762699.0778574 1.074935 0 1.912256-.02618522 2.51161-.0778574v.53348034c-.625952.02618522-1.09054.11521499-1.394827.26674017"></path><path d="m141.587795 8.78923163c-.923067.80875289-1.633662 1.93631027-2.132527 3.38196047-.498122 1.4456503-.747369 3.1012276-.747369 4.9667319 0 1.8836506.276735 3.5413628.830947 4.9738481.553469 1.4324853 1.307524 2.537271 2.263279 3.3157801.955756.7777976 2.014776 1.1670521 3.178175 1.1670521 1.209088 0 2.272566-.4049101 3.191176-1.213663.918238-.8091087 1.626976-1.9366661 2.125841-3.3823163.497751-1.4452945.747369-3.1008718.747369-4.9663761 0-1.8836506-.277106-3.5417186-.830575-4.9738481-.553841-1.4324853-1.306038-2.53762674-2.256965-3.31542428-.950927-.77850916-2.008089-1.16705213-3.170746-1.16705213-1.209831 0-2.275909.40384273-3.198605 1.21330724m8.037559-.53727095c1.352098.77815336 2.400346 1.90820142 3.143258 3.38872092.742911 1.4808752 1.114367 3.2428393 1.114367 5.2851805 0 1.998221-.383343 3.7669454-1.148913 5.3051059-.766684 1.5388721-1.832762 2.732254-3.198605 3.5812133-1.366214.8486034-2.921499 1.2727273-4.665855 1.2727273-1.800445 0-3.376903-.388543-4.728259-1.1666964-1.352842-.7777975-2.400718-1.9074897-3.14363-3.3887208-.742911-1.4808753-1.114738-3.2428394-1.114738-5.2851806 0-1.9985768.383342-3.7665896 1.149655-5.3051059.765942-1.5385162 1.832391-2.732254 3.198234-3.58121326 1.365842-.84860345 2.921499-1.27308308 4.666226-1.27308308 1.800074 0 3.376161.38925458 4.72826 1.16705212"></path><path d="m176.520866 8.21690674c.80493 0 1.478873-.02590909 2.021127-.07738182v.5282c-.997183.21452727-1.706338.97867273-2.126409 2.29209088l-5.079225 15.9800364h-.223239-.209507l-4.672888-13.585-4.278873 13.585h-.209507-.223592l-5.696126-16.5852727c-.385212-1.08196367-1.002113-1.64401821-1.850705-1.68685458v-.5282c.717254.05147273 1.675352.07738182 2.874296.07738182 1.28662 0 2.253169-.02590909 2.900704-.07738182v.5282c-.472183.03454546-.809155.12021818-1.010915.25736364-.201056.13749091-.301409.35650909-.301409.65636363 0 .28396364.096127.71750911.288733 1.30098181l3.937324 11.7568546 3.255634-10.2116364-.70986-2.0730727c-.366901-1.09025458-.896478-1.65230912-1.587324-1.68685458v-.5282c.647536.05147273 1.517958.07738182 2.61162.07738182 1.530634 0 2.677817-.02590909 3.439085-.07738182v.5282c-.464437.01727273-.818662.0494-1.063381.09638182-.24507.04767273-.435915.13541818-.570774.26392727-.135916.12885455-.203521.32230909-.203521.57932728 0 .29190909.091197.71750911.275704 1.27507271l3.858451 11.7309455 3.320422-10.1985091c.288733-.8926546.433451-1.6011818.433451-2.1248909 0-.58347276-.18169-.99560003-.545071-1.2360364-.362324-.24009091-.946831-.36894545-1.752112-.38621818v-.5282c1.024295.05147273 2.056338.07738182 3.097887.07738182"></path><path d="m19.4936818 8.12327118c-.2963199.233962-.4988723.59115588-.6065583 1.07336763-.1084187.48078296-.1622617 1.20302899-.1622617 2.16602369v15.7222461c-.1410175-.0089299-.3761687-.0132162-.7050874-.0132162-.3391746 0-.5974014.0042863-.7761456.0132162l-12.53956782-15.4882841v10.8115445c0 1.1098014.06080235 1.9234891.18350587 2.4417774.12233725.5182883.37397105.8965567.75453512 1.134805.38093035.2386055 1.00360495.3993428 1.86912266.4814973v.5640092c-.74318046-.0546507-1.7823145-.0821546-3.11776839-.0821546-1.06257591 0-1.89915756.0275039-2.51047752.0821546v-.5640092c.6300002-.0821545 1.09334336-.2403914 1.38893066-.4743534.29631986-.233962.49887225-.5915131.60692461-1.0730105.10805235-.4814973.16226167-1.2037434.16226167-2.1663809v-12.6828832c0-.70617235-.05420932-1.21945996-.16226167-1.54057727-.10805236-.3211173-.3080408-.54079154-.59959903-.66009429-.29155822-.11894557-.75673279-.19252751-1.39625624-.22038863v-.56365195c.61131996.05500786 1.44790161.08251179 2.51047752.08251179.96844215 0 1.7962331-.02750393 2.48264029-.08251179l11.18579997 13.43870554v-8.8173311c0-1.109087-.0611687-1.92313184-.1831396-2.44106297-.1223373-.51864552-.3739711-.89655665-.7549014-1.13480497-.3809304-.23824832-1.0039713-.39934276-1.8691227-.48185455v-.56365195c.7428142.05500786 1.7823145.08251179 3.1174021.08251179 1.0720992 0 1.9090471-.02750393 2.5108438-.08251179v.56365195c-.6300002.08251179-1.0933433.24074868-1.3892969.47471067"></path><path d="m6.44140284 7.87109742c-.299806.11962965-.50524797.3399058-.61702234.66190297-.11177436.32235535-.16783564.83669121-.16783564 1.54479841v14.0142195c0 .7081072.05606128 1.2231594.16783564 1.5444403.11177437.3223553.31721634.5429896.61702234.6622611.29910958.1196296.77963488.193055 1.44157588.2206343v.5655546c-.84057106-.0548004-2.00253693-.0823797-3.48694224-.0823797-1.57319803 0-2.74421729.0275793-3.51305776.0823797v-.5655546c.66194101-.0275793 1.1421181-.1010047 1.44157589-.2206343.29945779-.1192715.50489976-.3399058.61702233-.6622611.11177436-.3212809.16748744-.8363331.16748744-1.5444403v-14.0142195c0-.7081072-.05571308-1.22244306-.16748744-1.54479841-.11212257-.32199717-.31756454-.54227332-.61702233-.66190297-.29945779-.11927147-.77963488-.19305503-1.44157589-.22063432v-.56555454c.76013531.05515858 1.93115456.08273787 3.51305776.08273787 1.48440531 0 2.64637118-.02757929 3.48694224-.08273787v.56555454c-.661941.02757929-1.1424663.10136285-1.44157588.22063432"></path></g><path d="m28.382979 33.084909v-33" stroke="#fff" stroke-width="1.103"></path></g></svg>