<?xml version="1.0" encoding="utf-8"?>
<!-- Generator: Adobe Illustrator 24.2.1, SVG Export Plug-In . SVG Version: 6.00 Build 0)  -->
<svg version="1.1" xmlns="http://www.w3.org/2000/svg" xmlns:xlink="http://www.w3.org/1999/xlink" x="0px" y="0px"
	 viewBox="0 0 447.3 84" style="enable-background:new 0 0 447.3 84;" xml:space="preserve">
<style type="text/css">
	.st0{fill:none;stroke:#96694C;stroke-miterlimit:10;}
	.st1{fill:#96694C;}
	.st2{fill:#004A98;}
	.st3{fill:#61A60E;}
	.st4{fill:none;stroke:#004A98;stroke-width:2;stroke-miterlimit:10;}
	.st5{fill:#58595B;}
	.st6{fill:#6D6E70;}
	.st7{fill:#00639D;}
	.st8{fill:#7CB742;}
</style>
<g id="Layer_1">
	<g>
		<ellipse class="st0" cx="673.1" cy="-2788.3" rx="32.2" ry="4"/>
		<g>
			<path class="st1" d="M649.8-2788.9c0-0.2,0-0.4,0-0.7c0-0.2,0-0.4,0-0.7c0.1,0,0.3,0,0.4,0c0.1,0,0.3,0,0.4,0s0.3,0,0.4,0
				s0.3,0,0.4,0c0.3,0,0.5,0,0.8,0.1c0.2,0.1,0.4,0.2,0.5,0.3c0.1,0.1,0.2,0.3,0.3,0.5c0.1,0.2,0.1,0.4,0.1,0.7
				c0,0.3-0.1,0.6-0.2,0.8c-0.1,0.2-0.3,0.4-0.4,0.6s-0.4,0.2-0.6,0.3c-0.2,0.1-0.4,0.1-0.6,0.1c-0.1,0-0.2,0-0.3,0
				c-0.1,0-0.2,0-0.3,0s-0.2,0-0.3,0c-0.1,0-0.2,0-0.3,0c0-0.2,0-0.4,0-0.6c0-0.2,0-0.4,0-0.7V-2788.9z M650.2-2788
				c0,0.4,0,0.7,0,1.1c0.1,0,0.2,0,0.3,0s0.2,0,0.4,0c0.2,0,0.4,0,0.6-0.1c0.2,0,0.3-0.1,0.5-0.2c0.1-0.1,0.3-0.3,0.4-0.5
				c0.1-0.2,0.1-0.5,0.1-0.8c0-0.3,0-0.5-0.1-0.7c-0.1-0.2-0.2-0.3-0.3-0.4c-0.1-0.1-0.3-0.2-0.5-0.2c-0.2,0-0.4-0.1-0.6-0.1
				c-0.2,0-0.3,0-0.4,0s-0.2,0-0.4,0c0,0.2,0,0.3,0,0.5c0,0.2,0,0.4,0,0.5V-2788z"/>
			<path class="st1" d="M656.5-2786.7c0,0-0.1,0-0.1,0c0,0-0.1,0-0.1,0c0,0-0.1,0-0.1,0c0,0-0.1,0-0.1,0c0-0.1-0.1-0.2-0.1-0.3
				c0-0.1-0.1-0.2-0.1-0.3c0-0.1-0.1-0.2-0.1-0.4c-0.1-0.1-0.1-0.2-0.1-0.3c-0.1,0-0.2,0-0.3,0s-0.2,0-0.3,0c-0.1,0-0.2,0-0.3,0
				c-0.1,0-0.2,0-0.3,0c-0.1,0.3-0.2,0.5-0.3,0.7c-0.1,0.2-0.2,0.4-0.2,0.6c-0.1,0-0.1,0-0.2,0c-0.1,0-0.1,0-0.2,0
				c0.3-0.6,0.5-1.2,0.8-1.8c0.3-0.6,0.5-1.2,0.8-1.8h0.1c0.1,0.2,0.2,0.4,0.3,0.6c0.1,0.2,0.2,0.5,0.3,0.7c0.1,0.2,0.2,0.5,0.3,0.7
				c0.1,0.2,0.2,0.4,0.3,0.6c0.1,0.2,0.2,0.4,0.2,0.5C656.4-2786.9,656.5-2786.8,656.5-2786.7z M654.3-2788.3c0.1,0,0.2,0,0.3,0
				c0.1,0,0.2,0,0.3,0c0.1,0,0.2,0,0.3,0c0.1,0,0.2,0,0.3,0l-0.6-1.3L654.3-2788.3z"/>
			<path class="st1" d="M658.1-2786.7c-0.1-0.2-0.2-0.4-0.3-0.7c-0.1-0.3-0.2-0.6-0.4-0.9c-0.1-0.3-0.3-0.6-0.4-0.9
				c-0.1-0.3-0.3-0.6-0.4-0.9c0,0,0.1,0,0.1,0c0,0,0.1,0,0.1,0s0.1,0,0.1,0c0,0,0.1,0,0.1,0c0.1,0.2,0.2,0.5,0.2,0.7
				c0.1,0.2,0.2,0.5,0.3,0.7c0.1,0.3,0.2,0.5,0.3,0.8c0.1,0.3,0.2,0.5,0.3,0.8c0.1-0.1,0.1-0.3,0.2-0.5c0.1-0.2,0.1-0.3,0.2-0.5
				s0.1-0.4,0.2-0.6c0.1-0.2,0.1-0.4,0.2-0.5s0.1-0.3,0.2-0.5c0.1-0.2,0.1-0.3,0.1-0.4c0.1,0,0.1,0,0.2,0c0.1,0,0.1,0,0.2,0
				c-0.3,0.6-0.5,1.2-0.8,1.7c-0.2,0.6-0.5,1.1-0.7,1.7c-0.1,0-0.1,0-0.2,0C658.2-2786.7,658.1-2786.7,658.1-2786.7z"/>
			<path class="st1" d="M660.8-2789.5c0-0.2,0-0.4,0-0.7c0,0,0.1,0,0.1,0c0,0,0.1,0,0.1,0s0.1,0,0.1,0c0,0,0.1,0,0.1,0
				c0,0.2,0,0.4,0,0.7c0,0.2,0,0.4,0,0.7v0.9c0,0.2,0,0.4,0,0.7c0,0.2,0,0.4,0,0.6c-0.1,0-0.2,0-0.2,0c-0.1,0-0.2,0-0.2,0
				c0-0.2,0-0.4,0-0.6c0-0.2,0-0.4,0-0.7v-0.9C660.8-2789.1,660.8-2789.3,660.8-2789.5z"/>
			<path class="st1" d="M662.5-2787.2c0,0.1,0.1,0.1,0.2,0.2c0.1,0.1,0.1,0.1,0.2,0.1c0.1,0,0.2,0,0.3,0c0.1,0,0.2,0,0.3-0.1
				c0.1,0,0.2-0.1,0.2-0.2s0.1-0.1,0.1-0.2s0.1-0.2,0.1-0.3c0-0.2,0-0.3-0.1-0.4c-0.1-0.1-0.2-0.2-0.3-0.2c-0.1-0.1-0.2-0.1-0.4-0.2
				c-0.1-0.1-0.3-0.1-0.4-0.2c-0.1-0.1-0.2-0.2-0.3-0.3c-0.1-0.1-0.1-0.3-0.1-0.5c0-0.1,0-0.3,0.1-0.4c0.1-0.1,0.1-0.2,0.2-0.3
				s0.2-0.1,0.3-0.2c0.1,0,0.3-0.1,0.5-0.1c0.2,0,0.3,0,0.4,0.1c0.1,0,0.2,0.1,0.3,0.2c0,0.1-0.1,0.1-0.1,0.2c0,0.1,0,0.1-0.1,0.2
				h-0.1c0,0,0-0.1-0.1-0.2c0-0.1-0.1-0.1-0.1-0.2c0,0-0.1-0.1-0.2-0.1c-0.1,0-0.1,0-0.2,0c-0.1,0-0.2,0-0.3,0
				c-0.1,0-0.1,0.1-0.2,0.1s-0.1,0.1-0.1,0.2c0,0.1,0,0.2,0,0.3c0,0.2,0,0.3,0.1,0.4c0.1,0.1,0.2,0.2,0.3,0.2
				c0.1,0.1,0.2,0.1,0.4,0.2s0.3,0.1,0.4,0.2c0.1,0.1,0.2,0.2,0.3,0.3c0.1,0.1,0.1,0.3,0.1,0.4c0,0.2,0,0.3-0.1,0.4
				c-0.1,0.1-0.1,0.3-0.2,0.4c-0.1,0.1-0.2,0.2-0.4,0.2c-0.2,0.1-0.3,0.1-0.5,0.1c-0.2,0-0.4,0-0.5-0.1c-0.1-0.1-0.2-0.1-0.3-0.2
				c0-0.1,0.1-0.1,0.1-0.2c0-0.1,0-0.1,0-0.2h0.1C662.4-2787.3,662.4-2787.3,662.5-2787.2z"/>
			<path class="st1" d="M668-2788.9c0.2,0.4,0.5,0.9,0.7,1.4c0-0.1,0.1-0.2,0.1-0.3c0.1-0.1,0.1-0.3,0.2-0.4
				c0.1-0.2,0.2-0.3,0.3-0.5c0.1-0.2,0.2-0.4,0.3-0.5c0.1-0.2,0.2-0.4,0.3-0.5c0.1-0.2,0.2-0.3,0.3-0.5h0.1c0,0.3,0.1,0.6,0.1,0.9
				c0,0.3,0.1,0.6,0.1,0.9c0,0.3,0.1,0.6,0.1,0.9c0,0.3,0.1,0.6,0.1,0.8c0,0-0.1,0-0.1,0c0,0-0.1,0-0.1,0c0,0-0.1,0-0.1,0
				c0,0-0.1,0-0.1,0c0-0.4-0.1-0.9-0.1-1.3c0-0.4-0.1-0.8-0.1-1.3h0c-0.2,0.4-0.5,0.8-0.7,1.3s-0.4,0.9-0.6,1.3h0
				c-0.2-0.4-0.4-0.8-0.6-1.3c-0.2-0.4-0.4-0.9-0.7-1.3h0c0,0.2,0,0.4-0.1,0.7c0,0.2-0.1,0.5-0.1,0.7c0,0.2,0,0.5-0.1,0.7
				c0,0.2,0,0.4,0,0.5c-0.1,0-0.1,0-0.2,0c-0.1,0-0.1,0-0.2,0c0-0.3,0.1-0.6,0.1-0.9c0-0.3,0.1-0.6,0.1-0.9c0-0.3,0.1-0.6,0.1-0.9
				s0.1-0.6,0.1-0.8h0.1C667.5-2789.8,667.8-2789.3,668-2788.9z"/>
			<path class="st1" d="M674.5-2786.7c0,0-0.1,0-0.1,0c0,0-0.1,0-0.1,0s-0.1,0-0.1,0c0,0-0.1,0-0.1,0c0-0.1-0.1-0.2-0.1-0.3
				c0-0.1-0.1-0.2-0.1-0.3c0-0.1-0.1-0.2-0.1-0.4c-0.1-0.1-0.1-0.2-0.1-0.3c-0.1,0-0.2,0-0.3,0s-0.2,0-0.3,0c-0.1,0-0.2,0-0.3,0
				c-0.1,0-0.2,0-0.3,0c-0.1,0.3-0.2,0.5-0.3,0.7c-0.1,0.2-0.2,0.4-0.2,0.6c-0.1,0-0.1,0-0.2,0c-0.1,0-0.1,0-0.2,0
				c0.3-0.6,0.5-1.2,0.8-1.8c0.3-0.6,0.5-1.2,0.8-1.8h0.1c0.1,0.2,0.2,0.4,0.3,0.6c0.1,0.2,0.2,0.5,0.3,0.7c0.1,0.2,0.2,0.5,0.3,0.7
				c0.1,0.2,0.2,0.4,0.3,0.6c0.1,0.2,0.2,0.4,0.2,0.5C674.4-2786.9,674.5-2786.8,674.5-2786.7z M672.3-2788.3c0.1,0,0.2,0,0.3,0
				c0.1,0,0.2,0,0.3,0c0.1,0,0.2,0,0.3,0c0.1,0,0.2,0,0.3,0l-0.6-1.3L672.3-2788.3z"/>
			<path class="st1" d="M675.4-2788.9c0-0.2,0-0.4,0-0.7c0-0.2,0-0.4,0-0.7c0.1,0,0.2,0,0.3,0c0.1,0,0.2,0,0.3,0c0.1,0,0.2,0,0.3,0
				c0.1,0,0.2,0,0.3,0c0.1,0,0.3,0,0.4,0s0.2,0.1,0.3,0.1c0.1,0.1,0.2,0.1,0.2,0.2c0.1,0.1,0.1,0.2,0.1,0.4c0,0.2,0,0.3-0.1,0.4
				s-0.2,0.2-0.3,0.3c-0.1,0.1-0.2,0.1-0.3,0.2c-0.1,0-0.2,0.1-0.3,0.1c0,0.1,0.1,0.1,0.2,0.2c0.1,0.1,0.1,0.2,0.2,0.3
				c0.1,0.1,0.2,0.2,0.3,0.3c0.1,0.1,0.2,0.2,0.3,0.3c0.1,0.1,0.2,0.2,0.2,0.3s0.1,0.2,0.2,0.2c-0.1,0-0.1,0-0.2,0
				c-0.1,0-0.1,0-0.2,0c0,0-0.1,0-0.1,0c-0.1,0-0.1,0-0.1,0c-0.1-0.1-0.1-0.2-0.2-0.3c-0.1-0.1-0.2-0.3-0.3-0.5
				c-0.1-0.2-0.3-0.3-0.4-0.5c-0.1-0.2-0.2-0.3-0.4-0.4h-0.2v0.4c0,0.2,0,0.4,0,0.7c0,0.2,0,0.4,0,0.6c-0.1,0-0.2,0-0.2,0
				c-0.1,0-0.2,0-0.2,0c0-0.2,0-0.4,0-0.6c0-0.2,0-0.4,0-0.7V-2788.9z M675.8-2788.6c0,0,0.1,0,0.2,0c0.1,0,0.1,0,0.2,0
				c0.1,0,0.2,0,0.3,0c0.1,0,0.2-0.1,0.3-0.1c0.1-0.1,0.2-0.1,0.2-0.2c0.1-0.1,0.1-0.2,0.1-0.4c0-0.1,0-0.2-0.1-0.3
				c0-0.1-0.1-0.2-0.2-0.2s-0.2-0.1-0.3-0.1c-0.1,0-0.2,0-0.3,0c-0.1,0-0.2,0-0.3,0c-0.1,0-0.1,0-0.2,0c0,0.2,0,0.4,0,0.5
				s0,0.4,0,0.5V-2788.6z"/>
			<path class="st1" d="M678.8-2786.7c0-0.2,0-0.4,0-0.6c0-0.2,0-0.4,0-0.7v-0.9c0-0.2,0-0.4,0-0.7c0-0.2,0-0.4,0-0.7
				c0,0,0.1,0,0.1,0c0,0,0.1,0,0.1,0c0,0,0.1,0,0.1,0c0,0,0.1,0,0.1,0c0,0.2,0,0.4,0,0.7s0,0.4,0,0.7v0.3c0,0,0,0,0,0c0,0,0,0,0.1,0
				c0.1-0.1,0.2-0.2,0.4-0.3s0.3-0.3,0.4-0.4c0.1-0.1,0.3-0.3,0.4-0.4s0.2-0.3,0.4-0.4c0,0,0.1,0,0.1,0c0,0,0.1,0,0.1,0
				c0,0,0.1,0,0.1,0c0,0,0.1,0,0.1,0c-0.1,0.1-0.3,0.2-0.4,0.4c-0.1,0.1-0.3,0.3-0.4,0.4c-0.1,0.1-0.3,0.3-0.4,0.4
				c-0.1,0.1-0.2,0.3-0.3,0.4c0.3,0.3,0.5,0.6,0.8,0.9c0.3,0.3,0.6,0.6,0.8,1c-0.1,0-0.1,0-0.2,0c-0.1,0-0.1,0-0.2,0
				c0,0-0.1,0-0.1,0c0,0-0.1,0-0.1,0c-0.1-0.1-0.3-0.3-0.4-0.5c-0.1-0.2-0.3-0.3-0.4-0.5c-0.1-0.2-0.3-0.3-0.4-0.4
				c-0.1-0.1-0.2-0.2-0.2-0.3c0,0,0,0-0.1,0c0,0,0,0,0,0v0.4c0,0.2,0,0.4,0,0.7s0,0.4,0,0.6c-0.1,0-0.2,0-0.2,0
				C678.9-2786.7,678.8-2786.7,678.8-2786.7z"/>
			<path class="st1" d="M682.2-2789.6c0-0.2,0-0.4,0-0.6c0.2,0,0.3,0,0.5,0c0.1,0,0.3,0,0.5,0c0.2,0,0.3,0,0.4,0c0.1,0,0.3,0,0.4,0
				c0,0.1,0,0.1,0,0.2c0,0.1,0,0.1,0,0.2c-0.1,0-0.2,0-0.3,0c-0.1,0-0.2,0-0.3,0c-0.1,0-0.2,0-0.3,0c-0.1,0-0.3,0-0.4,0
				c0,0.1,0,0.2,0,0.3s0,0.2,0,0.3c0,0.1,0,0.3,0,0.4c0,0.1,0,0.2,0,0.3c0.1,0,0.3,0,0.4,0c0.1,0,0.2,0,0.3,0c0.1,0,0.2,0,0.3,0
				c0.1,0,0.2,0,0.2,0c0,0.1,0,0.1,0,0.2c0,0.1,0,0.1,0,0.2c-0.1,0-0.2,0-0.3,0c-0.1,0-0.2,0-0.3,0c-0.1,0-0.2,0-0.3,0
				c-0.1,0-0.2,0-0.2,0c0,0,0,0.1,0,0.1c0,0,0,0.1,0,0.1v0.2v0.3c0,0.2,0,0.3,0,0.5c0,0.1,0,0.2,0,0.3c0.1,0,0.2,0,0.4,0
				c0.1,0,0.3,0,0.4,0c0.1,0,0.2,0,0.3,0s0.2,0,0.3,0c0,0,0,0,0,0.1c0,0,0,0.1,0,0.1c0,0.1,0,0.1,0,0.1c-0.2,0-0.3,0-0.5,0
				c-0.1,0-0.3,0-0.5,0s-0.3,0-0.5,0c-0.2,0-0.3,0-0.5,0c0-0.2,0-0.4,0-0.6s0-0.4,0-0.7v-0.9
				C682.2-2789.1,682.2-2789.3,682.2-2789.6z"/>
			<path class="st1" d="M685.7-2789.9c-0.1,0-0.2,0-0.3,0s-0.2,0-0.3,0c-0.1,0-0.2,0-0.3,0c-0.1,0-0.2,0-0.2,0c0-0.1,0-0.1,0-0.2
				c0,0,0-0.1,0-0.2c0.2,0,0.4,0,0.6,0c0.2,0,0.4,0,0.6,0c0.2,0,0.4,0,0.6,0c0.2,0,0.4,0,0.6,0c0,0.1,0,0.1,0,0.2c0,0,0,0.1,0,0.2
				c-0.1,0-0.2,0-0.2,0c-0.1,0-0.2,0-0.3,0c-0.1,0-0.2,0-0.3,0c-0.1,0-0.2,0-0.3,0c0,0.3,0,0.7,0,1v0.9c0,0.2,0,0.4,0,0.7
				s0,0.4,0,0.6c-0.1,0-0.2,0-0.2,0c-0.1,0-0.2,0-0.2,0c0-0.2,0-0.4,0-0.6c0-0.2,0-0.4,0-0.7v-0.9
				C685.7-2789.2,685.7-2789.6,685.7-2789.9z"/>
			<path class="st1" d="M688.1-2789.5c0-0.2,0-0.4,0-0.7c0,0,0.1,0,0.1,0c0,0,0.1,0,0.1,0c0,0,0.1,0,0.1,0c0,0,0.1,0,0.1,0
				c0,0.2,0,0.4,0,0.7s0,0.4,0,0.7v0.9c0,0.2,0,0.4,0,0.7s0,0.4,0,0.6c-0.1,0-0.2,0-0.2,0c-0.1,0-0.2,0-0.2,0c0-0.2,0-0.4,0-0.6
				c0-0.2,0-0.4,0-0.7v-0.9C688.1-2789.1,688.1-2789.3,688.1-2789.5z"/>
			<path class="st1" d="M691.4-2788c-0.4-0.5-0.9-0.9-1.3-1.4c0,0.1,0,0.2,0,0.4c0,0.2,0,0.4,0,0.6c0,0.1,0,0.2,0,0.3
				c0,0.1,0,0.2,0,0.3c0,0.1,0,0.2,0,0.3c0,0.1,0,0.2,0,0.3c0,0.1,0,0.2,0,0.3c0,0.1,0,0.1,0,0.2c-0.1,0-0.1,0-0.2,0
				c-0.1,0-0.1,0-0.2,0c0,0,0-0.1,0-0.2c0-0.1,0-0.2,0-0.3c0-0.1,0-0.3,0-0.4c0-0.1,0-0.3,0-0.4c0-0.1,0-0.3,0-0.4
				c0-0.1,0-0.3,0-0.4c0-0.3,0-0.6,0-0.8c0-0.2,0-0.4,0-0.5h0.1c0.2,0.2,0.4,0.5,0.7,0.7c0.2,0.3,0.5,0.5,0.7,0.8
				c0.2,0.2,0.4,0.5,0.7,0.7c0.2,0.2,0.4,0.4,0.5,0.6v-0.7c0-0.4,0-0.7,0-1c0-0.3,0-0.6,0-0.9c0.1,0,0.1,0,0.2,0c0,0,0.1,0,0.2,0
				c0,0.1,0,0.2,0,0.3c0,0.1,0,0.3,0,0.5c0,0.2,0,0.3,0,0.5c0,0.2,0,0.3,0,0.4c0,0.1,0,0.2,0,0.3c0,0.1,0,0.2,0,0.4
				c0,0.1,0,0.2,0,0.4c0,0.1,0,0.2,0,0.4c0,0.1,0,0.2,0,0.3c0,0.1,0,0.1,0,0.2h-0.1C692.2-2787.1,691.8-2787.6,691.4-2788z"/>
			<path class="st1" d="M696.7-2789.8c-0.1-0.1-0.2-0.1-0.3-0.2c-0.1,0-0.2-0.1-0.3-0.1c-0.1,0-0.2,0-0.4,0c-0.2,0-0.4,0-0.6,0.1
				c-0.2,0.1-0.3,0.2-0.5,0.3s-0.2,0.3-0.3,0.5c-0.1,0.2-0.1,0.4-0.1,0.7c0,0.2,0,0.5,0.1,0.7c0.1,0.2,0.2,0.4,0.3,0.5
				c0.1,0.1,0.3,0.2,0.5,0.3s0.4,0.1,0.6,0.1c0.1,0,0.1,0,0.2,0c0.1,0,0.2,0,0.2,0c0.1,0,0.1,0,0.2-0.1c0.1,0,0.1,0,0.2-0.1
				c0-0.1,0-0.2,0-0.3c0-0.1,0-0.2,0-0.3c0-0.1,0-0.2,0-0.4c0-0.1,0-0.2,0-0.3c0.1,0,0.2,0,0.2,0c0,0,0.1,0,0.1,0s0.1,0,0.1,0
				c0,0.1,0,0.2,0,0.4c0,0.2,0,0.4,0,0.7c0,0.1,0,0.1,0,0.2c0,0.1,0,0.1,0,0.2c-0.1,0-0.2,0.1-0.3,0.1c-0.1,0-0.2,0.1-0.3,0.1
				c-0.1,0-0.2,0-0.4,0.1c-0.1,0-0.2,0-0.3,0c-0.3,0-0.6,0-0.8-0.1c-0.2-0.1-0.4-0.2-0.6-0.3c-0.2-0.2-0.3-0.3-0.4-0.6
				c-0.1-0.2-0.1-0.5-0.1-0.8c0-0.3,0-0.5,0.1-0.8c0.1-0.2,0.2-0.4,0.4-0.6c0.2-0.2,0.4-0.3,0.6-0.4c0.2-0.1,0.5-0.1,0.8-0.1
				c0.2,0,0.3,0,0.5,0c0.1,0,0.2,0,0.4,0.1c0.1,0,0.2,0.1,0.3,0.1c0.1,0,0.1,0.1,0.2,0.1c0,0-0.1,0.1-0.1,0.2c0,0.1,0,0.1,0,0.2
				h-0.1C696.8-2789.6,696.8-2789.7,696.7-2789.8z"/>
		</g>
	</g>
	<path class="st2" d="M102.1,20.6c-0.8,0.3-1.3,0.8-1.6,1.6c-0.3,0.8-0.4,2.1-0.4,3.8v34.3c0,1.7,0.1,3,0.4,3.8
		c0.3,0.8,0.8,1.3,1.6,1.6c0.8,0.3,2,0.5,3.6,0.5v1.4c-2.1-0.1-5-0.2-8.8-0.2c-4,0-6.9,0.1-8.9,0.2v-1.4c1.7-0.1,2.9-0.2,3.6-0.5
		c0.8-0.3,1.3-0.8,1.6-1.6c0.3-0.8,0.4-2.1,0.4-3.8V26c0-1.7-0.1-3-0.4-3.8c-0.3-0.8-0.8-1.3-1.6-1.6c-0.8-0.3-2-0.5-3.6-0.5v-1.4
		c1.9,0.1,4.9,0.2,8.9,0.2c3.7,0,6.7-0.1,8.8-0.2v1.4C104.1,20.1,102.9,20.3,102.1,20.6z"/>
	<path class="st2" d="M124.2,33.1c2.1-1.3,4.4-2,7-2c3.2,0,5.7,0.9,7.3,2.6c0.9,0.9,1.5,2.1,1.8,3.5c0.4,1.4,0.6,3.3,0.6,5.6v18.5
		c0,1.3,0.2,2.3,0.5,3c0.3,0.7,0.9,1.2,1.7,1.5c0.8,0.3,1.8,0.4,3.1,0.4v1.5c-4.2-0.2-7-0.3-8.3-0.3c-1.3,0-3.9,0.1-7.7,0.3v-1.5
		c1.1,0,2-0.1,2.7-0.4c0.6-0.3,1.1-0.8,1.4-1.5c0.3-0.7,0.5-1.7,0.5-3v-20c0-1.7-0.1-3.1-0.4-4.2c-0.3-1.1-0.8-2-1.6-2.7
		c-0.8-0.7-2-1-3.6-1c-1.9,0-3.6,0.6-5.1,1.7c-1.5,1.1-2.6,2.6-3.4,4.5c-0.8,1.9-1.2,4.1-1.2,6.4v15.4c0,1.3,0.2,2.3,0.5,3
		c0.3,0.7,0.8,1.2,1.4,1.5c0.7,0.3,1.6,0.4,2.7,0.4v1.5c-3.9-0.2-6.5-0.3-7.8-0.3c-1.3,0-4.1,0.1-8.3,0.3v-1.5
		c1.3,0,2.3-0.1,3.1-0.4c0.8-0.3,1.3-0.8,1.7-1.5c0.3-0.7,0.5-1.7,0.5-3V39.6c0-2.1-0.4-3.7-1.2-4.7c-0.8-1-2.1-1.5-4.1-1.5V32
		c1.4,0.1,2.9,0.2,4.3,0.2c2.9,0,5.3-0.3,7.2-0.9v8.1C120.5,36.5,122.1,34.4,124.2,33.1z"/>
	<path class="st2" d="M164.9,33c2.1-1.3,4.4-1.9,6.9-1.9c3.2,0,5.7,0.9,7.3,2.6c0.9,0.9,1.5,2.1,1.9,3.5c0.4,1.4,0.6,3.3,0.6,5.6
		v18.5c0,1.3,0.2,2.3,0.5,3c0.3,0.7,0.9,1.2,1.7,1.5c0.8,0.3,1.8,0.4,3.1,0.4v1.5c-4.3-0.2-7.1-0.3-8.3-0.3c-1.3,0-3.9,0.1-7.8,0.3
		v-1.5c1.1,0,2-0.1,2.7-0.4c0.7-0.3,1.1-0.8,1.4-1.5c0.3-0.7,0.5-1.7,0.5-3v-20c0-1.7-0.1-3.1-0.4-4.2c-0.3-1.1-0.8-2-1.6-2.7
		c-0.8-0.7-2-1-3.6-1c-1.9,0-3.5,0.5-5,1.6c-1.5,1.1-2.6,2.6-3.4,4.5c-0.8,1.9-1.2,4.1-1.2,6.5v15.4c0,1.3,0.2,2.3,0.5,3
		c0.3,0.7,0.8,1.2,1.4,1.5c0.6,0.3,1.5,0.4,2.7,0.4v1.5c-3.9-0.2-6.5-0.3-7.7-0.3c-1.3,0-4.1,0.1-8.3,0.3v-1.5
		c1.3,0,2.3-0.1,3.1-0.4c0.8-0.3,1.3-0.8,1.7-1.5c0.3-0.7,0.5-1.7,0.5-3V21.8c0-2.1-0.4-3.7-1.2-4.6c-0.8-1-2.1-1.4-4.1-1.4v-1.5
		c1.5,0.1,2.9,0.2,4.3,0.2c3,0,5.4-0.3,7.2-1v25.9C161.3,36.4,162.9,34.3,164.9,33z"/>
	<path class="st2" d="M213.2,63.9c-1.2,1.4-2.7,2.6-4.4,3.4c-1.8,0.9-3.7,1.3-5.9,1.3c-3.3,0-6.1-0.7-8.5-2.2
		c-2.4-1.5-4.2-3.6-5.5-6.3c-1.3-2.7-1.9-5.8-1.9-9.4c0-4,0.6-7.5,1.9-10.4c1.3-3,3.1-5.2,5.5-6.8s5.1-2.4,8.3-2.4
		c4.1,0,7.3,1.3,9.6,3.8c2.2,2.5,3.4,6.3,3.4,11.4h-21.6c-0.2,1.2-0.2,2.7-0.2,4.4c0,3,0.5,5.7,1.5,8c1,2.3,2.3,4,3.9,5.2
		c1.6,1.2,3.3,1.8,5.1,1.8c4.6,0,8-2.3,10.2-6.9l1.4,0.5C215.3,61,214.4,62.5,213.2,63.9z M208.3,38.6c-0.5-1.9-1.2-3.4-2.2-4.6
		c-1-1.1-2.3-1.7-3.8-1.7c-1.4,0-2.7,0.5-3.9,1.4c-1.2,0.9-2.2,2.3-3,4.2c-0.8,1.9-1.3,4.2-1.6,7h15.1
		C209,42.7,208.8,40.6,208.3,38.6z"/>
	<path class="st2" d="M231.8,35.7c1-1.4,2.1-2.5,3.5-3.3c1.4-0.9,2.8-1.3,4.3-1.3c1.2,0,2.3,0.2,3.3,0.7c1,0.5,1.7,1.1,2.2,2
		c0.5,0.8,0.8,1.7,0.8,2.7c0,1.2-0.4,2.2-1.1,3.1c-0.7,0.8-1.7,1.3-2.9,1.3c-1,0-1.9-0.3-2.6-1c-0.7-0.6-1.1-1.5-1.1-2.6
		c0-1.5,0.8-2.8,2.4-3.8c-0.3-0.5-0.8-0.7-1.5-0.7c-1.8,0-3.5,0.7-4.9,2.1c-1.5,1.4-2.6,3.1-3.4,5.2c-0.8,2.1-1.3,4-1.3,5.7v14.7
		c0,2.1,0.6,3.6,1.8,4.4c1.2,0.8,3.1,1.2,5.5,1.2v1.5c-5.7-0.2-9.2-0.3-10.6-0.3c-1.2,0-3.9,0.1-8.2,0.3v-1.5c1.3,0,2.3-0.1,3.1-0.4
		c0.8-0.3,1.3-0.8,1.7-1.5c0.3-0.7,0.5-1.7,0.5-3V39.6c0-2.1-0.4-3.7-1.2-4.7c-0.8-1-2.1-1.5-4.1-1.5V32c1.4,0.1,2.9,0.2,4.3,0.2
		c2.9,0,5.3-0.3,7.2-0.9v8.7C230,38.5,230.8,37.1,231.8,35.7z"/>
	<path class="st2" d="M259.5,64.3c0.3,0.7,0.9,1.2,1.7,1.5c0.8,0.3,1.8,0.4,3.1,0.4v1.5c-4.2-0.2-7-0.3-8.4-0.3
		c-1.4,0-4.1,0.1-8.4,0.3v-1.5c1.3,0,2.3-0.1,3.1-0.4c0.8-0.3,1.3-0.8,1.7-1.5c0.3-0.7,0.5-1.7,0.5-3V39.6c0-2.1-0.4-3.7-1.2-4.7
		c-0.8-1-2.1-1.5-4.1-1.5V32c1.4,0.1,2.9,0.2,4.3,0.2c2.9,0,5.3-0.3,7.2-0.9v30C258.9,62.5,259.1,63.6,259.5,64.3z M257.6,15.3
		c0.7,0.4,1.2,0.9,1.6,1.6c0.4,0.7,0.6,1.4,0.6,2.2s-0.2,1.5-0.6,2.2c-0.4,0.7-0.9,1.2-1.6,1.6c-0.7,0.4-1.4,0.6-2.2,0.6
		c-0.8,0-1.5-0.2-2.2-0.6c-0.7-0.4-1.2-0.9-1.6-1.6c-0.4-0.7-0.6-1.4-0.6-2.2s0.2-1.5,0.6-2.2c0.4-0.7,0.9-1.2,1.6-1.6
		c0.7-0.4,1.4-0.6,2.2-0.6C256.1,14.7,256.9,14.9,257.6,15.3z"/>
	<path class="st2" d="M286.4,32.1v1.4h-10.2v26.8c0,2.1,0.4,3.6,1.1,4.5c0.7,0.9,1.8,1.4,3.3,1.4c1.4,0,2.7-0.6,3.7-1.7
		c1-1.1,1.9-3,2.6-5.7l1.4,0.3c-1.1,6.4-4.1,9.6-9,9.6c-1.6,0-2.8-0.2-3.9-0.6c-1-0.4-1.9-1-2.7-1.7c-1-1-1.7-2.3-2.1-3.7
		c-0.4-1.5-0.6-3.5-0.6-6V33.5h-6.7v-1.4h6.7V21.5c2.6-0.1,4.7-0.4,6.2-1v11.6H286.4z"/>
	<path class="st3" d="M335.3,20.7c-0.8,0.4-1.3,1-1.6,1.9c-0.3,0.9-0.4,2.2-0.4,4V68h-1.6l-29.1-44.9v36.5c0,1.8,0.2,3.1,0.5,4
		c0.3,0.9,0.9,1.6,1.8,1.9c0.9,0.4,2.2,0.6,4,0.7v1.4c-1.6-0.1-4-0.2-7.1-0.2c-2.8,0-4.9,0.1-6.4,0.2v-1.4c1.6-0.1,2.8-0.3,3.6-0.7
		c0.8-0.4,1.3-1,1.6-1.9c0.3-0.9,0.4-2.2,0.4-4V26c0-1.7-0.1-3-0.4-3.8c-0.3-0.8-0.8-1.3-1.6-1.6c-0.8-0.3-2-0.5-3.6-0.5v-1.4
		c1.5,0.1,3.7,0.2,6.4,0.2c2.1,0,3.9-0.1,5.4-0.2l24.4,37.7V26.7c0-1.8-0.2-3.1-0.5-4c-0.3-0.9-0.9-1.5-1.8-1.9
		c-0.9-0.4-2.2-0.6-4.1-0.7v-1.4c1.6,0.1,4,0.2,7.1,0.2c2.7,0,4.9-0.1,6.4-0.2v1.4C337.2,20.1,336.1,20.4,335.3,20.7z"/>
	<path class="st3" d="M373.9,20.7c3.3,2,5.9,4.9,7.7,8.6c1.8,3.8,2.7,8.3,2.7,13.5c0,5.1-0.9,9.6-2.8,13.5c-1.9,3.9-4.5,7-7.8,9.1
		c-3.3,2.2-7.1,3.2-11.4,3.2c-4.4,0-8.2-1-11.5-3c-3.3-2-5.9-4.9-7.7-8.6c-1.8-3.8-2.7-8.3-2.7-13.5c0-5.1,0.9-9.6,2.8-13.5
		c1.9-3.9,4.5-7,7.8-9.1c3.3-2.2,7.1-3.2,11.4-3.2C366.8,17.7,370.6,18.7,373.9,20.7z M354.3,22c-2.3,2.1-4,4.9-5.2,8.6
		c-1.2,3.7-1.8,7.9-1.8,12.7c0,4.8,0.7,9,2,12.7c1.4,3.7,3.2,6.5,5.5,8.5s4.9,3,7.8,3c3,0,5.5-1,7.8-3.1c2.2-2.1,4-4.9,5.2-8.6
		c1.2-3.7,1.8-7.9,1.8-12.7c0-4.8-0.7-9-2-12.7c-1.4-3.7-3.2-6.5-5.5-8.5c-2.3-2-4.9-3-7.7-3C359.2,18.9,356.6,20,354.3,22z"/>
	<path class="st3" d="M442.1,18.9c2.1,0,3.8-0.1,5.2-0.2v1.4c-2.6,0.6-4.4,2.6-5.5,6l-13.1,42h-0.6h-0.5l-12-35.7l-11,35.7h-0.5
		h-0.6l-14.7-43.5c-1-2.8-2.6-4.3-4.8-4.4v-1.4c1.8,0.1,4.3,0.2,7.4,0.2c3.3,0,5.8-0.1,7.5-0.2v1.4c-1.2,0.1-2.1,0.3-2.6,0.7
		c-0.5,0.4-0.8,0.9-0.8,1.7c0,0.7,0.2,1.9,0.7,3.4l10.1,30.9l8.4-26.8l-1.8-5.4c-0.9-2.9-2.3-4.3-4.1-4.4v-1.4
		c1.7,0.1,3.9,0.2,6.7,0.2c3.9,0,6.9-0.1,8.9-0.2v1.4c-1.2,0-2.1,0.1-2.7,0.3c-0.6,0.1-1.1,0.4-1.5,0.7c-0.3,0.3-0.5,0.8-0.5,1.5
		c0,0.8,0.2,1.9,0.7,3.3l9.9,30.8l8.6-26.8c0.7-2.3,1.1-4.2,1.1-5.6c0-1.5-0.5-2.6-1.4-3.2c-0.9-0.6-2.4-1-4.5-1v-1.4
		C436.8,18.8,439.4,18.9,442.1,18.9z"/>
	<g>
		<path class="st3" d="M46.8,20.9c-0.7,0.6-1.2,1.5-1.5,2.7c-0.3,1.2-0.4,3.1-0.4,5.5V69c-0.3,0-0.9,0-1.7,0c-0.8,0-1.5,0-1.9,0
			l-31-39.3v27.5c0,2.8,0.2,4.9,0.5,6.2c0.3,1.3,0.9,2.3,1.9,2.9c0.9,0.6,2.5,1,4.6,1.2v1.4c-1.8-0.1-4.4-0.2-7.7-0.2
			c-2.6,0-4.7,0.1-6.2,0.2v-1.4c1.6-0.2,2.7-0.6,3.4-1.2c0.7-0.6,1.2-1.5,1.5-2.7c0.3-1.2,0.4-3.1,0.4-5.5V25.8
			c0-1.8-0.1-3.1-0.4-3.9c-0.3-0.8-0.8-1.4-1.5-1.7s-1.9-0.5-3.5-0.6v-1.4c1.5,0.1,3.6,0.2,6.2,0.2c2.4,0,4.4-0.1,6.1-0.2l26.5,32.7
			V28.5c0-2.8-0.1-4.5-0.4-5.8c-0.3-1.3-0.8-1.8-1.8-2.4c-0.9-0.6-1.5-0.4-3.6-0.6v-1.4c1.8,0.1,4.4,0.2,7.7,0.2
			c2.7,0,4.7-0.1,6.2-0.2v1.4C48.7,19.9,47.6,20.3,46.8,20.9z"/>
		<path class="st2" d="M14.5,20.3c-0.8,0.3-1.3,0.9-1.6,1.7c-0.3,0.8-0.4,2.1-0.4,3.9v35.5c0,1.8,0.1,3.1,0.4,3.9
			c0.3,0.8,0.8,1.4,1.6,1.7c0.8,0.3,2,0.5,3.8,0.6v1.4c-2.2-0.1-5.2-0.2-9.1-0.2c-4.1,0-7.1,0.1-9.2,0.2v-1.4c1.7-0.1,3-0.3,3.8-0.6
			s1.3-0.9,1.6-1.7c0.3-0.8,0.4-2.1,0.4-3.9V25.8c0-1.8-0.1-3.1-0.4-3.9c-0.3-0.8-0.8-1.4-1.6-1.7s-2-0.5-3.8-0.6v-1.4
			c2,0.1,5,0.2,9.2,0.2c3.9,0,6.9-0.1,9.1-0.2v1.4C16.5,19.8,15.3,20,14.5,20.3z"/>
	</g>
	<line class="st4" x1="69" y1="84" x2="69" y2="0"/>
	<g>
		<path class="st5" d="M-516.2,66.1c0,0.4,0,0.6,0.1,0.8s0.2,0.3,0.4,0.3s0.5,0.1,0.9,0.1v0.3c-0.5,0-1.2,0-2.1,0
			c-0.8,0-1.4,0-1.8,0v-0.3c0.3,0,0.6-0.1,0.7-0.1c0.2-0.1,0.3-0.2,0.3-0.3c0.1-0.2,0.1-0.4,0.1-0.8v-6.9c0-0.4,0-0.6-0.1-0.8
			c-0.1-0.2-0.2-0.3-0.3-0.3c-0.2-0.1-0.4-0.1-0.7-0.1v-0.3c0.4,0,1,0,1.7,0c0.4,0,0.8,0,1.2,0c0.4,0,0.7,0,0.9,0
			c0.7,0,1.4,0.1,1.9,0.3s0.9,0.6,1.1,1c0.3,0.4,0.4,0.9,0.4,1.4c0,0.5-0.1,1-0.3,1.5s-0.6,0.9-1.2,1.2c-0.5,0.3-1.3,0.5-2.2,0.5
			h-1.1V66.1z M-513.3,62.5c0.4-0.5,0.5-1.1,0.5-2c0-0.6-0.1-1.1-0.2-1.5s-0.4-0.7-0.7-0.9c-0.3-0.2-0.8-0.3-1.4-0.3
			c-0.3,0-0.5,0-0.7,0.1s-0.2,0.2-0.3,0.4s-0.1,0.4-0.1,0.8v4.1h0.9C-514.3,63.3-513.7,63-513.3,62.5z"/>
		<path class="st5" d="M-508.4,66.9c0.1,0.1,0.2,0.2,0.3,0.3c0.2,0.1,0.4,0.1,0.6,0.1v0.3c-0.9,0-1.4-0.1-1.7-0.1s-0.8,0-1.7,0.1
			v-0.3c0.3,0,0.5,0,0.6-0.1c0.2-0.1,0.3-0.2,0.3-0.3c0.1-0.1,0.1-0.3,0.1-0.6v-8c0-0.4-0.1-0.7-0.2-0.9c-0.2-0.2-0.4-0.3-0.8-0.3
			v-0.3c0.3,0,0.6,0,0.9,0c0.6,0,1.1-0.1,1.5-0.2v9.7C-508.5,66.5-508.4,66.7-508.4,66.9z"/>
		<path class="st5" d="M-503,60.7c-0.2-0.2-0.5-0.3-1-0.3c-0.7,0-1.1,0.2-1.4,0.5c0.2,0,0.3,0.1,0.5,0.3c0.1,0.2,0.2,0.3,0.2,0.6
			c0,0.2-0.1,0.4-0.2,0.6c-0.1,0.1-0.3,0.2-0.6,0.2c-0.2,0-0.4-0.1-0.6-0.2c-0.1-0.2-0.2-0.4-0.2-0.6c0-0.4,0.2-0.7,0.7-1
			c0.2-0.2,0.5-0.3,0.8-0.4c0.3-0.1,0.7-0.2,1.1-0.2c0.4,0,0.7,0,1,0.1s0.5,0.2,0.7,0.4c0.2,0.2,0.4,0.5,0.4,0.8
			c0.1,0.3,0.1,0.7,0.1,1.2v3.9c0,0.2,0,0.4,0.1,0.5c0.1,0.1,0.2,0.2,0.3,0.2c0.1,0,0.2,0,0.3-0.1s0.2-0.1,0.3-0.2l0.2,0.2
			c-0.2,0.1-0.3,0.2-0.4,0.3s-0.2,0.1-0.4,0.2s-0.3,0.1-0.5,0.1c-0.5,0-0.8-0.1-0.9-0.3c-0.2-0.2-0.3-0.5-0.3-0.9
			c-0.3,0.5-0.6,0.8-1,1s-0.8,0.3-1.2,0.3c-0.3,0-0.6-0.1-0.9-0.2s-0.5-0.3-0.6-0.5c-0.2-0.2-0.2-0.5-0.2-0.9c0-0.4,0.1-0.7,0.3-0.9
			s0.4-0.5,0.7-0.7s0.7-0.4,1.3-0.6c0.1,0,0.3-0.1,0.7-0.3s0.6-0.3,0.8-0.4c0.2-0.1,0.2-0.3,0.2-0.5v-0.9
			C-502.6,61.3-502.7,60.9-503,60.7z M-503,63.6c-0.2,0.1-0.5,0.3-1,0.5c-0.3,0.1-0.5,0.3-0.7,0.4s-0.3,0.3-0.5,0.5
			s-0.2,0.5-0.2,0.8c0,0.4,0.1,0.7,0.3,0.9s0.5,0.3,0.8,0.3c0.6,0,1.1-0.4,1.6-1.1v-2.7C-502.7,63.4-502.8,63.5-503,63.6z"/>
		<path class="st5" d="M-494.4,60.4c0.4,0,0.8,0,1.1,0v0.3c-0.2,0-0.4,0.1-0.5,0.3s-0.3,0.4-0.4,0.7l-2.3,6l-0.5,1.2
			c-0.2,0.5-0.4,0.8-0.6,1c-0.3,0.2-0.6,0.4-1.1,0.4c-0.3,0-0.5-0.1-0.7-0.2s-0.3-0.4-0.3-0.6c0-0.2,0.1-0.4,0.2-0.5
			s0.3-0.2,0.5-0.2c0.2,0,0.4,0.1,0.5,0.2c0.1,0.1,0.2,0.3,0.2,0.5c0,0.3-0.1,0.5-0.4,0.6c0,0,0,0,0.1,0c0.5,0,0.9-0.4,1.2-1.1
			l0.5-1.3l-2.5-6.1c-0.2-0.3-0.3-0.5-0.5-0.6c-0.2-0.1-0.3-0.2-0.5-0.2v-0.3c0.4,0.1,0.9,0.1,1.4,0.1c0.4,0,1,0,1.8-0.1v0.3
			c-0.2,0-0.4,0-0.5,0s-0.2,0.1-0.3,0.1c-0.1,0.1-0.1,0.2-0.1,0.3c0,0.2,0.1,0.4,0.2,0.7l1.7,4.2l1.5-4.1c0.1-0.3,0.2-0.5,0.2-0.6
			c0-0.2-0.1-0.4-0.2-0.5c-0.2-0.1-0.4-0.2-0.8-0.2v-0.3C-495,60.4-494.6,60.4-494.4,60.4z"/>
		<path class="st5" d="M-491.7,59c0-0.4,0.1-0.7,0.2-0.9c0.1-0.3,0.2-0.5,0.4-0.7c0.2-0.2,0.4-0.4,0.7-0.5s0.6-0.2,1-0.2
			c0.5,0,0.9,0.1,1.2,0.4c0.3,0.2,0.4,0.5,0.4,0.9c0,0.2-0.1,0.4-0.2,0.5c-0.1,0.1-0.3,0.2-0.5,0.2c-0.2,0-0.4-0.1-0.5-0.2
			c-0.1-0.1-0.2-0.3-0.2-0.5c0-0.2,0.1-0.3,0.2-0.5c0.1-0.1,0.2-0.2,0.4-0.2c0-0.1-0.1-0.2-0.2-0.2s-0.3-0.1-0.5-0.1
			c-0.4,0-0.7,0.2-0.9,0.5c-0.1,0.2-0.2,0.5-0.2,0.8s0,1,0,1.8v0.4h1.5v0.3h-1.5v5.5c0,0.4,0.1,0.7,0.4,0.9s0.6,0.2,1.1,0.2v0.3
			c-1.1,0-1.9-0.1-2.2-0.1c-0.2,0-0.8,0-1.7,0.1v-0.3c0.3,0,0.5,0,0.6-0.1c0.2-0.1,0.3-0.2,0.3-0.3c0.1-0.1,0.1-0.3,0.1-0.6v-5.6
			h-1.1v-0.3h1.1C-491.8,59.8-491.7,59.3-491.7,59z"/>
		<path class="st5" d="M-484.5,60.7c-0.2-0.2-0.5-0.3-1-0.3c-0.7,0-1.1,0.2-1.4,0.5c0.2,0,0.3,0.1,0.5,0.3c0.1,0.2,0.2,0.3,0.2,0.6
			c0,0.2-0.1,0.4-0.2,0.6c-0.1,0.1-0.3,0.2-0.6,0.2c-0.2,0-0.4-0.1-0.6-0.2c-0.1-0.2-0.2-0.4-0.2-0.6c0-0.4,0.2-0.7,0.7-1
			c0.2-0.2,0.5-0.3,0.8-0.4c0.3-0.1,0.7-0.2,1.1-0.2c0.4,0,0.7,0,1,0.1s0.5,0.2,0.7,0.4c0.2,0.2,0.4,0.5,0.4,0.8
			c0.1,0.3,0.1,0.7,0.1,1.2v3.9c0,0.2,0,0.4,0.1,0.5c0.1,0.1,0.2,0.2,0.3,0.2c0.1,0,0.2,0,0.3-0.1s0.2-0.1,0.3-0.2l0.2,0.2
			c-0.2,0.1-0.3,0.2-0.4,0.3s-0.2,0.1-0.4,0.2s-0.3,0.1-0.5,0.1c-0.5,0-0.8-0.1-0.9-0.3c-0.2-0.2-0.3-0.5-0.3-0.9
			c-0.3,0.5-0.6,0.8-1,1s-0.8,0.3-1.2,0.3c-0.3,0-0.6-0.1-0.9-0.2s-0.5-0.3-0.6-0.5c-0.2-0.2-0.2-0.5-0.2-0.9c0-0.4,0.1-0.7,0.3-0.9
			s0.4-0.5,0.7-0.7s0.7-0.4,1.3-0.6c0.1,0,0.3-0.1,0.7-0.3s0.6-0.3,0.8-0.4c0.2-0.1,0.2-0.3,0.2-0.5v-0.9
			C-484.1,61.3-484.2,60.9-484.5,60.7z M-484.5,63.6c-0.2,0.1-0.5,0.3-1,0.5c-0.3,0.1-0.5,0.3-0.7,0.4s-0.3,0.3-0.5,0.5
			s-0.2,0.5-0.2,0.8c0,0.4,0.1,0.7,0.3,0.9s0.5,0.3,0.8,0.3c0.6,0,1.1-0.4,1.6-1.1v-2.7C-484.2,63.4-484.3,63.5-484.5,63.6z"/>
		<path class="st5" d="M-478.8,66.9c0.1,0.1,0.2,0.2,0.3,0.3c0.2,0.1,0.4,0.1,0.6,0.1v0.3c-0.9,0-1.4-0.1-1.7-0.1s-0.8,0-1.7,0.1
			v-0.3c0.3,0,0.5,0,0.6-0.1c0.2-0.1,0.3-0.2,0.3-0.3c0.1-0.1,0.1-0.3,0.1-0.6v-4.4c0-0.4-0.1-0.7-0.2-0.9c-0.2-0.2-0.4-0.3-0.8-0.3
			v-0.3c0.3,0,0.6,0,0.9,0c0.6,0,1.1-0.1,1.5-0.2v6.1C-478.9,66.5-478.9,66.7-478.8,66.9z M-479.2,57c0.1,0.1,0.2,0.2,0.3,0.3
			s0.1,0.3,0.1,0.4s0,0.3-0.1,0.4s-0.2,0.2-0.3,0.3s-0.3,0.1-0.4,0.1s-0.3,0-0.4-0.1c-0.1-0.1-0.2-0.2-0.3-0.3
			c-0.1-0.1-0.1-0.3-0.1-0.4s0-0.3,0.1-0.4c0.1-0.1,0.2-0.2,0.3-0.3c0.1-0.1,0.3-0.1,0.4-0.1S-479.3,56.9-479.2,57z"/>
		<path class="st5" d="M-474.3,61.1c0.2-0.3,0.4-0.5,0.7-0.7s0.6-0.3,0.9-0.3c0.2,0,0.5,0,0.7,0.1c0.2,0.1,0.3,0.2,0.5,0.4
			s0.2,0.4,0.2,0.6c0,0.2-0.1,0.5-0.2,0.6s-0.3,0.3-0.6,0.3c-0.2,0-0.4-0.1-0.5-0.2s-0.2-0.3-0.2-0.5c0-0.3,0.2-0.6,0.5-0.8
			c-0.1-0.1-0.2-0.1-0.3-0.1c-0.4,0-0.7,0.1-1,0.4s-0.5,0.6-0.7,1s-0.3,0.8-0.3,1.2v3c0,0.4,0.1,0.7,0.4,0.9s0.6,0.2,1.1,0.2v0.3
			c-1.1,0-1.9-0.1-2.2-0.1c-0.2,0-0.8,0-1.7,0.1v-0.3c0.3,0,0.5,0,0.6-0.1c0.2-0.1,0.3-0.2,0.3-0.3c0.1-0.1,0.1-0.3,0.1-0.6v-4.4
			c0-0.4-0.1-0.7-0.2-0.9c-0.2-0.2-0.4-0.3-0.8-0.3v-0.3c0.3,0,0.6,0,0.9,0c0.6,0,1.1-0.1,1.5-0.2v1.8
			C-474.7,61.7-474.5,61.4-474.3,61.1z"/>
		<path class="st5" d="M-466.2,57.7l0.3,0c1.3,0,2,0,2.1,0c1.6,0,2.9,0.4,3.7,1.2c0.8,0.8,1.2,2,1.2,3.6c0,1-0.2,1.9-0.6,2.7
			c-0.4,0.8-1,1.4-1.7,1.8s-1.7,0.6-2.7,0.6c-0.1,0-0.4,0-0.9,0c-0.5,0-0.8,0-1,0c-0.8,0-1.3,0-1.7,0v-0.3c0.3,0,0.6-0.1,0.7-0.1
			c0.2-0.1,0.3-0.2,0.3-0.3c0.1-0.2,0.1-0.4,0.1-0.8v-6.9c0-0.4,0-0.6-0.1-0.8c-0.1-0.2-0.2-0.3-0.3-0.3c-0.2-0.1-0.4-0.1-0.7-0.1
			v-0.3C-467,57.7-466.6,57.7-466.2,57.7z M-465,66.9c0.1,0.2,0.2,0.3,0.3,0.3c0.1,0.1,0.4,0.1,0.7,0.1c1,0,1.8-0.2,2.3-0.5
			s1-0.9,1.2-1.6c0.2-0.7,0.3-1.6,0.3-2.6c0-1.1-0.1-2-0.4-2.6s-0.7-1.2-1.2-1.5c-0.6-0.3-1.3-0.5-2.3-0.5c-0.3,0-0.5,0-0.7,0.1
			s-0.2,0.2-0.3,0.4s-0.1,0.4-0.1,0.8v7C-465.1,66.4-465.1,66.7-465,66.9z"/>
		<path class="st5" d="M-455.2,66.9c0.1,0.1,0.2,0.2,0.3,0.3c0.2,0.1,0.4,0.1,0.6,0.1v0.3c-0.9,0-1.4-0.1-1.7-0.1s-0.8,0-1.7,0.1
			v-0.3c0.3,0,0.5,0,0.6-0.1c0.2-0.1,0.3-0.2,0.3-0.3c0.1-0.1,0.1-0.3,0.1-0.6v-4.4c0-0.4-0.1-0.7-0.2-0.9c-0.2-0.2-0.4-0.3-0.8-0.3
			v-0.3c0.3,0,0.6,0,0.9,0c0.6,0,1.1-0.1,1.5-0.2v6.1C-455.3,66.5-455.2,66.7-455.2,66.9z M-455.5,57c0.1,0.1,0.2,0.2,0.3,0.3
			s0.1,0.3,0.1,0.4s0,0.3-0.1,0.4s-0.2,0.2-0.3,0.3s-0.3,0.1-0.4,0.1s-0.3,0-0.4-0.1c-0.1-0.1-0.2-0.2-0.3-0.3
			c-0.1-0.1-0.1-0.3-0.1-0.4s0-0.3,0.1-0.4c0.1-0.1,0.2-0.2,0.3-0.3c0.1-0.1,0.3-0.1,0.4-0.1S-455.7,56.9-455.5,57z"/>
		<path class="st5" d="M-452.4,66.3c0.1,0.4,0.3,0.7,0.6,0.9s0.6,0.3,1.1,0.3c0.2,0,0.4,0,0.6-0.1c0.2-0.1,0.3-0.2,0.5-0.4
			s0.2-0.5,0.2-0.8c0-0.3-0.1-0.5-0.2-0.7c-0.1-0.2-0.3-0.4-0.5-0.5s-0.5-0.4-0.9-0.6c-0.5-0.3-0.8-0.5-1.1-0.7
			c-0.2-0.2-0.4-0.4-0.6-0.7s-0.3-0.6-0.3-1c0-0.4,0.1-0.7,0.3-1s0.4-0.5,0.7-0.6c0.3-0.1,0.7-0.2,1-0.2c0.3,0,0.6,0.1,0.9,0.2
			c0.3,0.1,0.5,0.2,0.6,0.4c0.1,0.1,0.2,0.1,0.2,0.1c0.2,0,0.3-0.2,0.3-0.6h0.3c0,0.5-0.1,1.2-0.1,2.4h-0.3
			c-0.1-0.6-0.3-1.1-0.6-1.5s-0.7-0.6-1.3-0.6c-0.3,0-0.6,0.1-0.8,0.3s-0.3,0.5-0.3,0.8c0,0.3,0.1,0.6,0.3,0.8
			c0.2,0.2,0.5,0.4,0.8,0.6c0.3,0.2,0.5,0.3,0.7,0.4c0.4,0.3,0.8,0.5,1,0.7c0.3,0.2,0.5,0.5,0.6,0.7c0.2,0.3,0.2,0.6,0.2,1
			c0,0.4-0.1,0.8-0.3,1.1c-0.2,0.3-0.5,0.5-0.9,0.7s-0.8,0.2-1.2,0.2c-0.4,0-0.8-0.1-1.1-0.2c-0.2-0.1-0.4-0.2-0.6-0.4
			c0,0-0.1-0.1-0.1-0.1c-0.1,0-0.2,0.2-0.3,0.5h-0.3c0-0.5,0.1-1.5,0.1-2.8h0.3C-452.7,65.4-452.6,65.9-452.4,66.3z"/>
		<path class="st5" d="M-444.1,60.5c0.4-0.3,0.8-0.4,1.3-0.4c0.5,0,0.9,0.1,1.3,0.4c0.4,0.3,0.7,0.7,0.9,1.2
			c0.2,0.5,0.3,1.2,0.3,1.9c0,0.7-0.1,1.4-0.3,2s-0.6,1.1-1.1,1.5c-0.5,0.4-1.1,0.6-1.8,0.6c-0.4,0-0.7-0.1-1-0.2
			c-0.3-0.1-0.5-0.3-0.7-0.6v1.8c0,0.4,0.1,0.6,0.3,0.8s0.6,0.2,1,0.2v0.3c-0.1,0-0.4,0-0.8,0c-0.4,0-0.8,0-1.2,0
			c-0.3,0-0.6,0-0.9,0s-0.5,0-0.6,0v-0.3c0.3,0,0.6-0.1,0.7-0.2s0.2-0.4,0.2-0.7v-7.1c0-0.4-0.1-0.7-0.2-0.9
			c-0.2-0.2-0.4-0.3-0.8-0.3v-0.3c0.3,0,0.6,0,0.9,0c0.6,0,1.1-0.1,1.5-0.2v1.5C-444.8,61.2-444.5,60.8-444.1,60.5z M-444.4,67.2
			c0.3,0.2,0.6,0.2,0.9,0.2c1.3,0,2-1.2,2-3.6c0-2.2-0.5-3.2-1.6-3.2c-0.4,0-0.8,0.2-1.1,0.5c-0.3,0.3-0.6,0.7-0.7,1.3v4.2
			C-444.9,66.8-444.7,67-444.4,67.2z"/>
		<path class="st5" d="M-436.8,66.9c0.1,0.1,0.2,0.2,0.3,0.3c0.2,0.1,0.4,0.1,0.6,0.1v0.3c-0.9,0-1.4-0.1-1.7-0.1s-0.8,0-1.7,0.1
			v-0.3c0.3,0,0.5,0,0.6-0.1c0.2-0.1,0.3-0.2,0.3-0.3c0.1-0.1,0.1-0.3,0.1-0.6v-8c0-0.4-0.1-0.7-0.2-0.9c-0.2-0.2-0.4-0.3-0.8-0.3
			v-0.3c0.3,0,0.6,0,0.9,0c0.6,0,1.1-0.1,1.5-0.2v9.7C-436.9,66.5-436.8,66.7-436.8,66.9z"/>
		<path class="st5" d="M-431.4,60.7c-0.2-0.2-0.5-0.3-1-0.3c-0.7,0-1.1,0.2-1.4,0.5c0.2,0,0.3,0.1,0.5,0.3c0.1,0.2,0.2,0.3,0.2,0.6
			c0,0.2-0.1,0.4-0.2,0.6c-0.1,0.1-0.3,0.2-0.6,0.2c-0.2,0-0.4-0.1-0.6-0.2c-0.1-0.2-0.2-0.4-0.2-0.6c0-0.4,0.2-0.7,0.7-1
			c0.2-0.2,0.5-0.3,0.8-0.4c0.3-0.1,0.7-0.2,1.1-0.2c0.4,0,0.7,0,1,0.1s0.5,0.2,0.7,0.4c0.2,0.2,0.4,0.5,0.4,0.8
			c0.1,0.3,0.1,0.7,0.1,1.2v3.9c0,0.2,0,0.4,0.1,0.5c0.1,0.1,0.2,0.2,0.3,0.2c0.1,0,0.2,0,0.3-0.1s0.2-0.1,0.3-0.2l0.2,0.2
			c-0.2,0.1-0.3,0.2-0.4,0.3s-0.2,0.1-0.4,0.2s-0.3,0.1-0.5,0.1c-0.5,0-0.8-0.1-0.9-0.3c-0.2-0.2-0.3-0.5-0.3-0.9
			c-0.3,0.5-0.6,0.8-1,1s-0.8,0.3-1.2,0.3c-0.3,0-0.6-0.1-0.9-0.2s-0.5-0.3-0.6-0.5c-0.2-0.2-0.2-0.5-0.2-0.9c0-0.4,0.1-0.7,0.3-0.9
			s0.4-0.5,0.7-0.7s0.7-0.4,1.3-0.6c0.1,0,0.3-0.1,0.7-0.3s0.6-0.3,0.8-0.4c0.2-0.1,0.2-0.3,0.2-0.5v-0.9
			C-431,61.3-431.1,60.9-431.4,60.7z M-431.4,63.6c-0.2,0.1-0.5,0.3-1,0.5c-0.3,0.1-0.5,0.3-0.7,0.4s-0.3,0.3-0.5,0.5
			s-0.2,0.5-0.2,0.8c0,0.4,0.1,0.7,0.3,0.9s0.5,0.3,0.8,0.3c0.6,0,1.1-0.4,1.6-1.1v-2.7C-431.1,63.4-431.2,63.5-431.4,63.6z"/>
		<path class="st5" d="M-422.8,60.4c0.4,0,0.8,0,1.1,0v0.3c-0.2,0-0.4,0.1-0.5,0.3s-0.3,0.4-0.4,0.7l-2.3,6l-0.5,1.2
			c-0.2,0.5-0.4,0.8-0.6,1c-0.3,0.2-0.6,0.4-1.1,0.4c-0.3,0-0.5-0.1-0.7-0.2s-0.3-0.4-0.3-0.6c0-0.2,0.1-0.4,0.2-0.5
			s0.3-0.2,0.5-0.2c0.2,0,0.4,0.1,0.5,0.2c0.1,0.1,0.2,0.3,0.2,0.5c0,0.3-0.1,0.5-0.4,0.6c0,0,0,0,0.1,0c0.5,0,0.9-0.4,1.2-1.1
			l0.5-1.3l-2.5-6.1c-0.2-0.3-0.3-0.5-0.5-0.6c-0.2-0.1-0.3-0.2-0.5-0.2v-0.3c0.4,0.1,0.9,0.1,1.4,0.1c0.4,0,1,0,1.8-0.1v0.3
			c-0.2,0-0.4,0-0.5,0s-0.2,0.1-0.3,0.1c-0.1,0.1-0.1,0.2-0.1,0.3c0,0.2,0.1,0.4,0.2,0.7l1.7,4.2l1.5-4.1c0.1-0.3,0.2-0.5,0.2-0.6
			c0-0.2-0.1-0.4-0.2-0.5c-0.2-0.1-0.4-0.2-0.8-0.2v-0.3C-423.4,60.4-423,60.4-422.8,60.4z"/>
	</g>
	<g>
		<path class="st6" d="M-376.7,67.2v-9.4h1.3l4.9,7.4v-7.4h1.2v9.4h-1.3l-4.9-7.4v7.4H-376.7z"/>
		<path class="st6" d="M-367.6,63.8c0-1.3,0.3-2.2,1-2.8c0.6-0.5,1.3-0.8,2.1-0.8c0.9,0,1.7,0.3,2.3,0.9c0.6,0.6,0.9,1.5,0.9,2.5
			c0,0.9-0.1,1.6-0.4,2.1c-0.3,0.5-0.6,0.9-1.1,1.2c-0.5,0.3-1,0.4-1.6,0.4c-1,0-1.7-0.3-2.3-0.9S-367.6,65-367.6,63.8z
			 M-366.4,63.8c0,0.9,0.2,1.5,0.6,2c0.4,0.4,0.9,0.6,1.4,0.6c0.6,0,1-0.2,1.4-0.7c0.4-0.4,0.6-1.1,0.6-2c0-0.8-0.2-1.5-0.6-1.9
			s-0.9-0.6-1.4-0.6c-0.6,0-1.1,0.2-1.4,0.6S-366.4,63-366.4,63.8z"/>
		<path class="st6" d="M-358.5,67.2h-1.1v-9.4h1.2v3.3c0.5-0.6,1.1-0.9,1.9-0.9c0.4,0,0.8,0.1,1.2,0.3c0.4,0.2,0.7,0.4,0.9,0.7
			c0.2,0.3,0.4,0.7,0.6,1.1s0.2,0.9,0.2,1.4c0,1.2-0.3,2.1-0.9,2.7c-0.6,0.6-1.3,1-2.1,1c-0.8,0-1.4-0.3-1.9-1V67.2z M-358.5,63.8
			c0,0.8,0.1,1.4,0.3,1.8c0.4,0.6,0.9,0.9,1.5,0.9c0.5,0,0.9-0.2,1.3-0.7s0.6-1.1,0.6-2c0-0.9-0.2-1.5-0.5-2
			c-0.4-0.4-0.8-0.6-1.3-0.6c-0.5,0-0.9,0.2-1.3,0.7S-358.5,62.9-358.5,63.8z"/>
		<path class="st6" d="M-352,59.2v-1.3h1.2v1.3H-352z M-352,67.2v-6.8h1.2v6.8H-352z"/>
		<path class="st6" d="M-348.9,67.2v-9.4h1.2v9.4H-348.9z"/>
		<path class="st6" d="M-345.7,59.2v-1.3h1.2v1.3H-345.7z M-345.7,67.2v-6.8h1.2v6.8H-345.7z"/>
		<path class="st6" d="M-340,66.2l0.2,1c-0.3,0.1-0.6,0.1-0.9,0.1c-0.4,0-0.7-0.1-1-0.2s-0.4-0.3-0.5-0.5c-0.1-0.2-0.1-0.7-0.1-1.4
			v-3.9h-0.8v-0.9h0.8v-1.7l1.1-0.7v2.4h1.2v0.9h-1.2v4c0,0.3,0,0.5,0.1,0.6c0,0.1,0.1,0.2,0.2,0.2c0.1,0.1,0.2,0.1,0.4,0.1
			C-340.4,66.2-340.2,66.2-340,66.2z"/>
		<path class="st6" d="M-338.6,69.8l-0.1-1.1c0.3,0.1,0.5,0.1,0.7,0.1c0.3,0,0.5,0,0.6-0.1s0.3-0.2,0.4-0.4c0.1-0.1,0.2-0.4,0.4-0.9
			c0-0.1,0.1-0.2,0.1-0.3l-2.6-6.8h1.2l1.4,3.9c0.2,0.5,0.3,1,0.5,1.6c0.1-0.5,0.3-1,0.5-1.5l1.5-4h1.2l-2.6,6.9
			c-0.3,0.7-0.5,1.3-0.6,1.5c-0.2,0.4-0.4,0.7-0.7,0.8c-0.3,0.2-0.6,0.3-0.9,0.3C-338.1,70-338.4,69.9-338.6,69.8z"/>
	</g>
	<g>
		<path class="st6" d="M-290.2,67.2v-9.4h1.2v8.3h4.6v1.1H-290.2z"/>
		<path class="st6" d="M-282.7,59.2v-1.3h1.2v1.3H-282.7z M-282.7,67.2v-6.8h1.2v6.8H-282.7z"/>
		<path class="st6" d="M-279.5,67.2v-6.8h1v1c0.2-0.3,0.5-0.6,0.9-0.8c0.4-0.2,0.8-0.3,1.2-0.3c0.5,0,0.9,0.1,1.2,0.3
			s0.5,0.5,0.7,0.9c0.5-0.8,1.2-1.2,2.1-1.2c0.7,0,1.2,0.2,1.6,0.6c0.4,0.4,0.5,0.9,0.5,1.7v4.7h-1.1v-4.3c0-0.5,0-0.8-0.1-1
			c-0.1-0.2-0.2-0.4-0.4-0.5c-0.2-0.1-0.4-0.2-0.7-0.2c-0.5,0-0.9,0.2-1.2,0.5c-0.3,0.3-0.5,0.8-0.5,1.5v4h-1.2v-4.4
			c0-0.5-0.1-0.9-0.3-1.2c-0.2-0.3-0.5-0.4-0.9-0.4c-0.3,0-0.6,0.1-0.9,0.3c-0.3,0.2-0.5,0.4-0.6,0.7s-0.2,0.8-0.2,1.4v3.5H-279.5z"
			/>
		<path class="st6" d="M-263.7,65l1.2,0.1c-0.2,0.7-0.5,1.2-1,1.6c-0.5,0.4-1.2,0.6-1.9,0.6c-1,0-1.8-0.3-2.4-0.9
			c-0.6-0.6-0.9-1.5-0.9-2.6c0-1.1,0.3-2,0.9-2.7c0.6-0.6,1.4-0.9,2.3-0.9c0.9,0,1.7,0.3,2.2,0.9c0.6,0.6,0.9,1.5,0.9,2.6
			c0,0.1,0,0.2,0,0.3h-5.1c0,0.7,0.3,1.3,0.6,1.7s0.9,0.6,1.4,0.6c0.4,0,0.8-0.1,1.1-0.3C-264.1,65.9-263.9,65.5-263.7,65z
			 M-267.5,63.2h3.8c-0.1-0.6-0.2-1-0.4-1.3c-0.4-0.4-0.8-0.7-1.4-0.7c-0.5,0-1,0.2-1.3,0.5C-267.3,62.1-267.5,62.6-267.5,63.2z"/>
		<path class="st6" d="M-257.5,67.2v-1.2l4.8-6c0.3-0.4,0.7-0.8,1-1.1h-5.2v-1.1h6.7v1.1l-5.3,6.5l-0.6,0.7h6v1.1H-257.5z"/>
		<path class="st6" d="M-244,65l1.2,0.1c-0.2,0.7-0.5,1.2-1,1.6c-0.5,0.4-1.2,0.6-1.9,0.6c-1,0-1.8-0.3-2.4-0.9
			c-0.6-0.6-0.9-1.5-0.9-2.6c0-1.1,0.3-2,0.9-2.7c0.6-0.6,1.4-0.9,2.3-0.9c0.9,0,1.7,0.3,2.2,0.9c0.6,0.6,0.9,1.5,0.9,2.6
			c0,0.1,0,0.2,0,0.3h-5.1c0,0.7,0.3,1.3,0.6,1.7s0.9,0.6,1.4,0.6c0.4,0,0.8-0.1,1.1-0.3C-244.4,65.9-244.2,65.5-244,65z
			 M-247.8,63.2h3.8c-0.1-0.6-0.2-1-0.4-1.3c-0.4-0.4-0.8-0.7-1.4-0.7c-0.5,0-1,0.2-1.3,0.5C-247.5,62.1-247.7,62.6-247.8,63.2z"/>
		<path class="st6" d="M-241.5,65.2l1.1-0.2c0.1,0.5,0.2,0.8,0.5,1c0.3,0.2,0.7,0.4,1.2,0.4c0.5,0,0.9-0.1,1.2-0.3
			c0.3-0.2,0.4-0.5,0.4-0.8c0-0.3-0.1-0.5-0.3-0.6c-0.2-0.1-0.6-0.2-1.2-0.4c-0.8-0.2-1.4-0.4-1.8-0.6s-0.6-0.4-0.7-0.6
			c-0.2-0.3-0.3-0.6-0.3-0.9c0-0.3,0.1-0.6,0.2-0.8s0.3-0.5,0.6-0.6c0.2-0.1,0.4-0.2,0.7-0.3c0.3-0.1,0.6-0.1,1-0.1
			c0.5,0,1,0.1,1.4,0.2c0.4,0.2,0.7,0.4,0.9,0.6c0.2,0.3,0.3,0.6,0.4,1.1l-1.1,0.2c-0.1-0.4-0.2-0.6-0.4-0.8c-0.2-0.2-0.6-0.3-1-0.3
			c-0.5,0-0.9,0.1-1.1,0.3c-0.2,0.2-0.3,0.4-0.3,0.6c0,0.1,0,0.3,0.1,0.4c0.1,0.1,0.2,0.2,0.4,0.3c0.1,0,0.5,0.1,1,0.3
			c0.8,0.2,1.4,0.4,1.7,0.5s0.6,0.3,0.8,0.6c0.2,0.3,0.3,0.6,0.3,1c0,0.4-0.1,0.7-0.3,1.1c-0.2,0.3-0.5,0.6-1,0.8
			c-0.4,0.2-0.9,0.3-1.4,0.3c-0.9,0-1.6-0.2-2-0.6S-241.4,65.9-241.5,65.2z"/>
		<path class="st6" d="M-231.7,66.2l0.2,1c-0.3,0.1-0.6,0.1-0.9,0.1c-0.4,0-0.7-0.1-1-0.2s-0.4-0.3-0.5-0.5
			c-0.1-0.2-0.1-0.7-0.1-1.4v-3.9h-0.8v-0.9h0.8v-1.7l1.1-0.7v2.4h1.2v0.9h-1.2v4c0,0.3,0,0.5,0.1,0.6c0,0.1,0.1,0.2,0.2,0.2
			c0.1,0.1,0.2,0.1,0.4,0.1C-232.1,66.2-232,66.2-231.7,66.2z"/>
	</g>
	<rect x="-396.8" y="54" class="st7" width="13.9" height="13.9"/>
	<rect x="-310" y="54" class="st8" width="13.9" height="13.9"/>
</g>
<g id="guides">
</g>
</svg>
